<?xml version="1.0" encoding="UTF-8" standalone="no"?><!DOCTYPE svg PUBLIC "-//W3C//DTD SVG 1.1//EN" "http://www.w3.org/Graphics/SVG/1.1/DTD/svg11.dtd"><svg width="100%" height="100%" viewBox="0 0 4267 4267" version="1.1" xmlns="http://www.w3.org/2000/svg" xmlns:xlink="http://www.w3.org/1999/xlink" xml:space="preserve" xmlns:serif="http://www.serif.com/" style="fill-rule:evenodd;clip-rule:evenodd;stroke-linejoin:round;stroke-miterlimit:2;"><g><path id="chest1" d="M386.503,373.808c-6.376,-3.507 -6.487,-3.958 -6.336,-25.627l0.154,-22.057l5.634,-10.838c20.867,-17.577 44.523,-7.764 62.51,23.641c13.983,24.414 13.705,27.116 -3.852,37.426c-11.238,6.599 -17.463,1.204 -33.374,1.12c-11.537,-0.061 -20.632,-1.408 -24.736,-3.666l-0,0Z" style="fill-rule:nonzero;"/><path id="chest2" d="M311.336,377.332c-6.334,-0.998 -22.686,-9.409 -30.325,-15.596c-3.669,-2.972 -0.106,-0.107 0,0c4.044,4.08 9.293,-12.211 12.248,-23.181c6.551,-24.327 34.912,-44.405 45.45,-23.535c5.378,4.05 10.738,4.283 11.913,5.224c2.001,1.604 7.886,2.585 9.998,15.255c1.71,10.259 2.254,16.124 2.255,24.297l0.001,10.774l-7.271,3.8l-7.271,3.8l-16.53,-0.108c-9.092,-0.06 -18.301,-0.388 -20.466,-0.729l0,-0Z" style="fill-rule:nonzero;"/><path id="obliques1" d="M321.961,559.103c-5.412,-5.372 -5.709,-15.111 -11.615,-21.271l-4.045,-7.619l1.201,-27.784l-9.119,-50.106l-2.97,-32.324c-6.448,-16.66 -10.452,-17.694 -11.996,-29.471c-1.995,-15.221 -2.005,-15.894 -0.222,-15.28c0.758,0.261 8.462,2.942 17.12,5.958l15.743,5.484l0.249,2.552c0.137,1.404 -0.309,19.793 -0.99,40.866l4.183,41.945l7.112,43.045c3.912,23.675 3.95,45.731 4.808,48.074c1.693,4.621 1.879,5.719 0.97,5.707c-0.325,-0.004 -5.019,-4.404 -10.431,-9.776l-0,0Z" style="fill-rule:nonzero;"/><path id="obliques2" d="M400.679,576.348c0.001,-0.373 0.912,-4.089 2.024,-8.259c1.112,-4.17 0.889,-20.898 3.82,-36.14l5.329,-27.713l6.498,-58.876c0.989,-31.289 1.946,-57.039 2.126,-57.221c0.18,-0.183 5.944,-2.327 12.809,-4.766c6.865,-2.439 13.749,0.95 15.891,-0.194c2.726,-1.457 4.032,-1.816 4.354,-1.196c0.253,0.487 1.277,4.877 2.276,9.757l1.817,8.872l-5.975,13.15l-5.975,13.15l-9.985,34.658c-1.141,16.117 -7.176,34.917 -5.22,46.465l4.342,28.423l-5.219,12.334c-19.856,20.199 -28.915,28.834 -28.911,27.559Z" style="fill-rule:nonzero;"/><path id="abs1" d="M393.986,425.998c-5.59,-0.537 -17.627,-2.805 -18.251,-3.438c-0.13,-0.131 -1.325,-8.319 -2.657,-18.195l-2.421,-17.956l1.706,-2.932c1.138,-1.956 2.27,-2.924 3.399,-2.907c2.881,0.041 34.472,6.947 35.094,7.672c0.517,0.602 4.806,28.598 4.784,31.227c-0.004,0.558 -2.189,2.444 -4.853,4.19c-5.231,3.428 -5.336,3.442 -16.802,2.34Z" style="fill-rule:nonzero;"/><path id="abs2" d="M326.489,424.274l-3.739,-1.631l0,-36.511l8.855,-0.011c6.098,-0.007 13.022,-0.727 22.237,-2.311c7.36,-1.265 13.502,-2.186 13.649,-2.046c0.147,0.14 -0.516,8.632 -1.474,18.871c-1.443,15.423 -1.99,18.882 -3.193,20.164c-1.136,1.212 -4.146,1.938 -13.875,3.347c-15.15,2.195 -17.69,2.21 -22.46,0.129Z" style="fill-rule:nonzero;"/><path id="abs3" d="M329.584,469.463l-2.267,-2.504l-4.567,-18.72l0,-14.829l13.972,-0.512c7.684,-0.281 17.603,-0.727 22.04,-0.99l8.068,-0.479l-0.009,16.256l0.206,20.105l-5.206,2.088c-4.95,1.985 -5.816,2.088 -17.588,2.088l-12.382,0l-2.267,-2.504Z" style="fill-rule:nonzero;"/><path id="abs4" d="M373.205,469.837l-1.906,-2.13l0.254,-19.571l0,-15.718l8.533,0c4.693,0 14.434,0.236 21.646,0.524l13.114,0.524l0,15.252l-4.531,19.1l-5.143,2.087c-4.906,1.99 -5.718,2.086 -17.602,2.074l-12.459,-0.014l-1.906,-2.128Z" style="fill-rule:nonzero;"/><path id="abs5" d="M356.756,507.149c-7.036,-1.621 -24.284,-6.747 -24.9,-7.401c-1.088,-1.154 -4.539,-15.54 -4.539,-18.924l0,-2.784l17.646,0c9.705,0 18.644,-0.213 19.863,-0.475l2.217,-0.475l0,9.7c0,8.724 -0.196,10.26 -1.951,15.272c-1.926,5.501 -1.982,5.571 -4.434,5.492c-1.366,-0.044 -3.121,-0.227 -3.902,-0.407Z" style="fill-rule:nonzero;"/><path id="abs6" d="M372.888,495.537l-2.199,-12.561l3.923,-3.93l17.65,-0.466c9.707,-0.256 17.749,-0.36 17.87,-0.23c0.121,0.13 -0.426,1.85 -1.216,3.823c-0.997,2.489 -1.437,5.253 -1.437,9.029l-0.001,5.442l-5.757,3.326c-4.67,2.698 -7.726,3.779 -16.194,5.728l-10.438,2.402l-2.199,-12.561Z" style="fill-rule:nonzero;"/><path id="abs7" d="M347.976,596.099c-3.519,-4.415 1.071,-3.527 -5.915,-24.261l-7.744,-22.986l1.171,-20.55c-1.239,-11.149 -2.189,-20.37 -2.11,-20.491c0.078,-0.121 2.586,0.819 5.571,2.088c5.061,2.152 6.049,2.308 14.576,2.308l9.147,0l0.408,2.088c0.224,1.148 1.211,7.475 2.192,14.058l1.785,11.97l-2.581,30.706c-1.304,16.967 -7.043,28.307 -7.043,28.937c0,0.731 -1.007,1.124 -2.778,1.086c-2.32,-0.05 -3.422,-0.867 -6.68,-4.954Z" style="fill-rule:nonzero;"/><path id="abs8" d="M372.466,600.088c-0.188,-0.621 -1.8,-7.231 -2.628,-22.645l2.687,-32.897l1.559,-15.046c1.05,-8.237 2.05,-15.097 2.222,-15.245c0.172,-0.148 5.9,-1.504 12.727,-3.014c11.66,-2.579 12.486,-2.667 13.595,-1.459c1.102,1.201 0.834,3.225 -4.044,30.518l-2.552,30.581l-9.317,12.137l-7.561,17.663l-3.174,0.268c-2.065,0.174 -3.293,-0.127 -3.515,-0.862Z" style="fill-rule:nonzero;"/><path id="abductor1" d="M263.533,621.045c0.225,-0.792 1.748,-3.92 3.383,-11.695c1.907,-9.07 10.757,-30.312 15.607,-45.192l15.353,-23.088l3.015,1.936c3.601,2.312 -3.589,0.663 -5.601,27.078l-6.097,22.372l-9.168,13.739c-8.075,12.102 -9.553,13.891 -12.406,15.015c-4.112,1.619 -4.589,1.6 -4.087,-0.165l0,0Z" style="fill-rule:nonzero;"/><path id="abductor2" d="M460.509,598.934l-12.463,-14.241l-2.498,-18.023l0.004,-22.123l-5.329,-1.431c1.229,-0.749 2.458,-1.091 2.731,-0.759c0.705,0.856 10.522,26.912 18.101,40.18c5.822,10.191 11.172,12.401 12.237,17.5c2.545,12.183 2.633,13.14 1.211,13.14c-0.91,0 -6.598,-5.788 -13.996,-14.241l0.003,0Z" style="fill-rule:nonzero;"/><path id="biceps1" d="M236.003,439.021l0,-24.789l3.371,-11.429l3.371,-11.429l13.625,-10.902l13.625,-10.902l5.684,3.558c3.126,1.957 5.943,3.841 6.259,4.187c0.324,0.354 -0.339,9.509 -1.516,20.932l-2.091,20.303l-11.536,30.826l-14.462,7.218c-7.954,3.97 -14.882,7.218 -15.396,7.218c-0.784,0 -0.934,-3.972 -0.934,-24.789Z" style="fill-rule:nonzero;"/><path id="biceps2" d="M490.771,455.101c-9.84,-5.007 -11.184,-5.987 -17.347,-12.642l-3.456,-3.732l-4.908,-20.102l-4.908,-20.102l0.671,-9.162c1.291,-17.641 0.897,-16.22 5.473,-19.712c2.217,-1.691 4.397,-3.082 4.844,-3.091c0.447,-0.009 6.138,4.284 12.647,9.541l11.834,9.557l4.278,9.757l4.278,9.757l1.246,22.241c1.746,31.156 1.789,29.855 -1.041,31.461c-1.274,0.723 -2.675,1.281 -3.113,1.24c-0.438,-0.042 -5.163,-2.297 -10.498,-5.012Z" style="fill-rule:nonzero;"/><path id="calves1" d="M919.743,965.935c0,-1.342 1.007,-14.063 2.238,-28.268l2.238,-25.828l19.822,-60.929l0,-25.903l3.602,-2.745l3.602,-2.745l7.759,9.63l-0.486,16.073l-0.486,16.073l-8.415,39.851c-8.048,38.112 -8.594,40.261 -12.512,49.254l-4.096,9.403l-6.633,4.287l-6.633,4.287l0,-2.441Z" style="fill-rule:nonzero;"/><path id="calves2" d="M958.473,964.446c-8.542,-11.386 -10.164,-14.315 -10.158,-18.348c0.017,-11.634 18.567,-97.099 22.185,-102.209c0.401,-0.566 2.962,4.04 5.692,10.236l4.964,11.265l-2.559,48.024l-2.559,48.024l-3.7,8.279l-3.7,8.279l-10.165,-13.549Z" style="fill-rule:nonzero;"/><path id="calves3" d="M1129.109,964.409c-1.916,-3.83 -2.672,-11.594 -4.788,-49.154l-2.513,-44.606l4.903,-13.262l4.904,-13.262l5.003,15.462c2.752,8.504 8.317,31.407 12.367,50.895l7.364,35.432l-6.89,10.392c-3.79,5.716 -6.985,10.544 -7.102,10.729c-0.116,0.185 -2.632,0.693 -5.592,1.128c-5.12,0.754 -5.49,0.572 -7.656,-3.756Z" style="fill-rule:nonzero;"/><path id="calves4" d="M1167.15,947.184c-6.429,-12.533 -6.946,-14.233 -8.836,-29.044c-1.151,-9.019 -5.185,-28.082 -9.455,-44.679l-7.447,-28.948l3.934,-10.722c2.164,-5.897 4.288,-11.142 4.722,-11.656c0.434,-0.514 2.568,0.862 4.743,3.059c3.856,3.892 3.955,4.278 3.961,15.298c0.004,10.969 0.313,12.178 10.374,40.715l10.369,29.41l1.792,20.519c0.986,11.285 1.794,22.519 1.796,24.964c0.003,4.23 -0.218,4.445 -4.56,4.421c-4.487,-0.024 -4.678,-0.247 -11.392,-13.337Z" style="fill-rule:nonzero;"/><path id="forearm1" d="M189.87,563.042c-3.219,-3.258 -5.745,-6.572 -5.611,-7.365c0.65,-3.871 25.427,-77.478 28.407,-84.393c2.673,-6.201 4.783,-9.387 9.652,-14.571c4.208,-4.48 6.416,-6.228 6.801,-5.384c0.313,0.688 1.268,5.64 2.121,11.006c1.545,9.716 1.561,9.755 4.072,9.755c1.386,0 7.546,-2.476 13.69,-5.503c10.892,-5.366 13.505,-6.287 13.485,-4.753c-0.044,3.407 -5.724,21.547 -8.871,28.334c-3.625,7.818 -5.705,10.477 -28.393,36.282l-24.481,27.846l-0.005,5.673c-0.005,5.219 -0.206,5.806 -2.509,7.334l-2.504,1.662l-5.854,-5.923Z" style="fill-rule:nonzero;"/><path id="forearm2" d="M534.993,549.829l-9.337,-17.31l-18.25,-18.861l-18.25,-18.861l-4.992,-16.961c-3.397,-11.542 -4.715,-17.291 -4.125,-17.993c0.59,-0.702 4.512,0.794 12.278,4.684l11.411,5.716l3.113,-2.187l3.113,-2.187l0,-17.995l2.759,0.037c2.527,0.033 3.383,1.042 10.179,11.977l7.42,11.939l12.74,41.426c7.007,22.784 12.74,42.419 12.74,43.632c0,1.568 -1.349,3.233 -4.671,5.763c-2.569,1.957 -5.147,3.768 -5.73,4.024c-0.64,0.281 -4.757,-6.39 -10.396,-16.844l0,-0Z" style="fill-rule:nonzero;"/><path id="shoulder1" d="M250.193,370.205c-1.183,-1.525 1.704,-4.241 1.704,-16.319l0,-10.846l4.503,-12.305l4.503,-8.661l7.273,-5.013l13.335,-4.985l14.515,-3.367l12.363,-14.409l0,2.268c0,1.774 -9.847,17.837 -14.088,20.787c-5.319,3.699 4.505,-0.022 -7.376,21.349l-12.114,21.792l-9.961,5.019c-5.479,2.761 -10.243,5.357 -10.588,5.77c-1.047,1.253 -2.572,0.848 -4.068,-1.079Z" style="fill-rule:nonzero;"/><path id="shoulder2" d="M476.347,362.211l-10.262,-6.792l-10.947,-19.607c-9.818,-17.586 -21.984,-27.226 -29.677,-33.755l-8.578,-7.279l19.239,7.356l16.617,6.551l9.785,6.997l19.376,10.758l7.508,12.587c4.153,15.517 4.417,2.058 4.417,10.176c0,10.836 -2.437,19.836 -5.366,19.815c-1.017,-0.007 -6.467,-3.07 -12.111,-6.806Z" style="fill-rule:nonzero;"/><path id="glutes1" d="M972.705,665.809l-12.744,-5.451l-4.712,-8.892c-4.311,-8.135 -4.712,-9.583 -4.712,-17.005c0,-7.691 0.469,-9.217 9.035,-29.405c9.879,-23.282 11.683,-53.388 29.22,-72.011l11.4,-12.105l5.337,0.043c4.481,0.037 7.085,1.096 16.234,6.606c10.894,6.561 10.899,6.566 17.434,17.693l6.911,15.218l-0.571,55.13l0.008,28.54l-5.275,12.558c-3.438,8.184 -5.93,12.71 -7.154,12.996c-1.033,0.241 -12.181,0.686 -24.773,0.988l-22.894,0.549l-12.742,-5.45Z" style="fill-rule:nonzero;"/><path id="glutes2" d="M1066.775,670.069c-0.247,-0.661 -1.073,-2.934 -1.835,-5.051c-0.762,-2.117 -3.377,-8.078 -5.811,-13.248l-4.425,-9.4l0.017,-27.16l-0.247,-53.608l6.018,-15.232l5.848,-11.167l15.393,-8.868l5.989,0.178l24.068,5.834l14.664,14.879l3.7,26.977c6.915,19.029 17.263,46.375 18.805,55.39l1.84,10.755l-9.674,19.859l-13.164,5.465l-13.164,5.465l-23.789,0.067c-18.085,0.051 -23.896,-0.221 -24.238,-1.136l0.003,0Z" style="fill-rule:nonzero;"/><path id="harmstrings1" d="M979.101,841.33l-7.334,-18.999l-2.56,-12.676c0.019,-12.479 -24.018,-37.55 -18.343,-51.463c5.671,-13.909 3.197,-14.337 6.448,-37.359c3.214,-22.763 3.356,-10.814 10.003,-26.443c7.75,-18.221 27.702,-6.275 30.743,18.732c0.965,7.937 3.804,24.628 6.308,37.091l5.948,23.651l-4.81,23.589c-4.437,21.76 -4.374,25.228 -10.792,43.293c-3.826,10.771 -7.254,19.583 -7.617,19.583c-0.363,0 -3.96,-8.549 -7.994,-18.999l-0.001,0Z" style="fill-rule:nonzero;"/><path id="harmstrings2" d="M1108.778,845.949c-4.783,-11.423 -6.33,-22.96 -11.458,-42.924l-6.362,-24.774l8.513,-40.858c6.962,-37.928 16.647,-51.175 19.006,-49.421c4.339,3.227 9.544,-7.725 16.512,11.637c5.878,16.331 7.946,48.449 11.133,62.931l6.51,15.482l-18.266,32.164l-4.11,19.366l-6.192,15.276c-4.179,10.309 -6.705,15.28 -7.771,15.287c-1.056,0.008 -3.543,-4.682 -7.514,-14.165l-0.002,0Z" style="fill-rule:nonzero;"/><path id="lats1" d="M1089.716,500.228c-2.741,-6.794 -3.644,-10.821 -5.139,-22.909c-1.276,-10.316 -2.775,-17.683 -5.055,-24.837l-3.241,-10.171l-9.552,-6.349c-5.254,-3.492 -9.653,-6.43 -9.776,-6.528c-0.24,-0.191 27.936,-58.95 30.028,-62.624c1.247,-2.189 1.258,-2.186 16.37,5.362l15.122,7.553l6.235,-2.089c3.429,-1.149 6.407,-1.897 6.618,-1.662c0.496,0.554 -7.769,66.708 -8.77,70.198c-0.419,1.459 -6.019,10.792 -12.445,20.739l-11.684,18.086l-2.126,11.737c-1.169,6.455 -2.381,11.737 -2.692,11.737c-0.312,0 -2.063,-3.709 -3.892,-8.243Z" style="fill-rule:nonzero;"/><path id="lats2" d="M1005.06,509.73c-0.215,-0.415 -1.109,-6.193 -1.986,-12.839l-1.595,-12.084l-12.208,-18.512l-12.208,-18.512l-3.803,-35.363c-2.091,-19.45 -3.652,-35.536 -3.469,-35.747c0.184,-0.211 3.898,0.387 8.253,1.329l7.92,1.713l12.38,-7.189c6.809,-3.954 12.755,-6.929 13.215,-6.612c0.459,0.317 4.279,7.712 8.489,16.433c4.21,8.721 10.909,22.541 14.887,30.71l7.233,14.853l-12.995,13.343l-12.995,13.343l-0.013,31.462l-4.605,12.213c-4.264,11.309 -5.471,13.438 -6.497,11.458l-0.003,0Z" style="fill-rule:nonzero;"/><path id="upper_back1" d="M1100.445,363.456c-13.18,-6.792 -13.528,-7.051 -13.772,-10.278c-0.138,-1.821 1.359,-12.937 3.325,-24.704c3.038,-18.173 4.03,-22.294 6.592,-27.372l3.016,-5.978l14.926,20.524c9.744,7.904 18.27,14.919 18.945,15.59c1.046,1.038 0.931,3.202 -0.769,14.545l1.33,14.154l-4.597,5.287c-4.559,5.244 -4.641,5.286 -10.036,5.243c-4.782,-0.039 -7.073,-0.886 -18.961,-7.012Z" style="fill-rule:nonzero;"/><path id="upper_back2" d="M970.246,364.354l-4.852,-6.158l-1.51,-10.197c-0.444,-5.256 -0.547,-12.096 -0.228,-15.201l0.58,-5.646l9.523,-4.836c8.674,-4.405 10.179,-5.563 16.883,-12.998c4.048,-4.489 8.896,-14.332 9.272,-14.332c0.376,0 2.724,5.551 5.217,12.336l4.534,12.336l0.647,18.678l0.647,18.678l-13.398,6.752c-10.825,5.455 -14.269,6.751 -17.93,6.749c-4.418,-0.002 -4.654,-0.158 -9.384,-6.16l0,0Z" style="fill-rule:nonzero;"/><path id="lower_back" d="M1041.35,533.422l-7.17,-9.868l-10.332,2.064c-6.954,-3.486 -12.769,-6.457 -12.924,-6.602c-0.154,-0.145 1.975,-5.288 4.732,-11.43l5.013,-11.166l0,-29.27l7.944,-18.991l11.607,-6.498l11.607,-6.498l10.02,6.999l10.02,6.999l3.696,12.043c3.462,11.279 3.696,12.756 3.696,23.27l0,11.227l4.561,9.452c3.291,6.819 4.483,10.334 4.282,12.621c-0.273,3.093 -0.469,3.222 -8.179,5.381c-8.435,2.362 -2.772,-6.78 -27.528,16.49l-3.876,3.644l-7.17,-9.868Z" style="fill-rule:nonzero;"/><path id="quads1" d="M292.435,735.675l-11.763,-26.929l-3.492,-18.223l-3.492,-18.222l0.126,-21.293l0.126,-21.293l10.409,-15.711c5.897,-8.9 10.624,-15.293 10.905,-14.747c1.608,3.125 12.057,42.829 16.982,64.524l5.787,25.496l-5.124,35.201c-4.928,33.852 -3.973,38.588 -6.408,38.588c-0.282,0 -7.587,-12.58 -14.056,-27.391l0,0Z" style="fill-rule:nonzero;"/><path id="quads2" d="M424.449,722.305l-4.971,-41.21l10.754,-43.549c9.999,-40.491 10.93,-43.549 13.259,-43.549c1.835,0 5.017,3.394 11.904,12.696l9.4,12.696l0,63.402l-5.196,16.87c-2.858,9.279 -7.036,31.194 -12.817,44.429c-14.926,34.172 -16.078,30.071 -22.333,-21.786Z" style="fill-rule:nonzero;"/><path id="quads3" d="M269.787,733.596l-11.71,-33.296l0.049,-15.529c0.031,-9.666 0.962,-22.272 2.468,-33.39c2.408,-17.778 2.433,-17.862 5.311,-18.206l2.892,-0.345l-4.307,14.713l3.978,29.268l3.978,29.268l9.522,24.001l10.878,24.249l-2.16,6.58c-1.912,5.824 -8.412,6.711 -11.24,6.699c-3.101,-0.012 1.704,-1.708 -9.657,-34.012l-0,-0Z" style="fill-rule:nonzero;"/><path id="quads4" d="M456.644,762.32c-1.456,-5.202 -8.106,-6.342 3.967,-42.848l12.305,-37.208l0,-56.071l6.793,6.97l0.757,36.242l0.757,36.242l-11.693,30.276c-6.431,16.652 -4.522,31.043 -4.522,31.276c0,0.233 -1.548,0.423 -3.44,0.423c-3.045,0 -3.61,-0.608 -4.924,-5.302Z" style="fill-rule:nonzero;"/><path id="trapezius1" d="M1032.755,390.947l-15.308,-34.583l-1.59,-24.223l-1.59,-24.223l-6.591,-12.476c-3.625,-6.862 -6.343,-12.753 -6.04,-13.091c0.303,-0.338 11.238,-4.03 24.299,-8.203l23.748,-7.587l24.033,7.605c13.218,4.183 24.238,7.834 24.489,8.114c0.251,0.28 -2.514,6.858 -6.145,14.617l-6.601,14.108l-3.186,27.982l-3.186,27.982l-13.793,28.98c-9.532,20.026 -14.324,29.072 -15.512,29.28c-1.392,0.243 -4.636,-6.289 -17.027,-34.283Z" style="fill-rule:nonzero;"/><path id="trapezius2" d="M1067.184,265.382l-13.928,-4.835l1.523,-14.552l0,-10.963l4.351,-1.189c9.361,-2.558 8.45,-3.231 21.076,15.567c6.434,9.58 3.267,20.193 3.267,20.474c0,0.98 -2.456,0.301 -16.288,-4.501Z" style="fill-rule:nonzero;"/><path id="trapezius3" d="M1013.166,269.199c1.016,-1.435 4.339,-8.122 11.281,-16.36l8.588,-19.079l12.462,0l0,11.751l0.205,15.307l-3.541,1.07c-5.67,1.713 -26.972,8.505 -28.995,9.245c-1.834,0.671 -1.834,0.657 0,-1.934Z" style="fill-rule:nonzero;"/><path id="trapezius4" d="M379.042,292.912c0,-1.2 14.04,-23.04 15.157,-24.234c0.262,-0.28 5.551,4.56 11.752,10.755c12.833,12.82 7.024,6.656 -8.233,9.355c-5.534,0.979 -12,2.604 -14.369,3.612c-3.303,1.405 -4.307,1.525 -4.307,0.513Z" style="fill-rule:nonzero;"/><path id="trapezius5" d="M332.871,289.819c-7.37,-1.796 -13.595,-3.459 -13.833,-3.695c-0.238,-0.236 -1.035,-0.286 4.829,-6.142c10.345,-10.331 10.694,-10.565 11.729,-7.884c0.587,1.519 6.002,4.136 8.554,9.571c2.552,5.435 4.641,10.276 4.641,10.757c0,1.212 -0.762,1.087 -15.921,-2.607Z" style="fill-rule:nonzero;"/><path id="triceps1" d="M927.19,445.763c2.124,-5.605 5.202,-28.202 5.202,-38.188l0,-3.215l-13.732,0l-2.129,9.23c-1.541,6.678 -2.122,12.186 -2.105,19.921c0.023,10.213 -0.079,10.767 -2.303,12.395c-1.28,0.937 -2.555,1.704 -2.833,1.704c-0.278,0 -0.505,-5.904 -0.505,-13.121l0,-13.121l6.577,-21.271c3.798,-12.282 8.72,-25.794 11.648,-31.974l5.071,-10.704l9.362,-5.498c5.149,-3.024 10.141,-4.886 11.675,-4.905l2.789,-0.034l4.481,18.32l3.917,18.954l-4.732,17.172c-4.228,15.342 -5.651,18.94 -13.36,33.76l-8.628,16.588l-12.693,0.051l2.298,-6.065Z" style="fill-rule:nonzero;"/><path id="triceps2" d="M1156.519,438.851l-8.631,-12.867l-5.802,-20.844l-5.802,-20.844l2.87,-16.604c1.579,-9.132 -0.366,-17.433 -0.103,-18.598c0.765,-3.388 4.571,-2.686 15.153,2.794l13.448,5.529l8.089,17.933c7.307,16.199 8.515,19.768 12.5,36.92l4.411,18.987l-1.476,8.117l-1.476,8.117l-2.51,-1.71c-2.482,-1.69 -2.515,-1.871 -2.92,-16.028c-0.271,-9.454 -0.954,-16.2 -2.012,-19.857l-1.602,-5.538l-7.045,0c-3.875,0 -7.045,0.146 -7.045,0.324c0,5.508 4.36,36.593 5.694,40.591c1.023,3.068 1.86,5.797 1.86,6.065c0,0.268 -2.018,0.463 -4.485,0.433l-4.485,-0.055l-8.631,-12.867Z" style="fill-rule:nonzero;"/><path id="shoulder3" d="M924.838,351.929c0,-0.533 0.765,-6.946 1.786,-14.421c1.761,-12.882 2.108,-14.08 6.663,-23.002l4.806,-9.412l12.16,-5.79l12.16,-5.79l14.812,-1.487c8.147,-0.818 14.996,-1.301 15.221,-1.073c0.225,0.228 -0.165,2.86 -0.869,5.848l-1.278,5.433l-14.371,9.204c-7.904,5.062 -14.734,9.572 -15.178,10.021c-0.444,0.449 -1.715,4.565 -2.826,9.147l-2.019,8.33l-14.408,6.438c-7.924,3.541 -14.831,6.642 -15.481,6.955c-0.649,0.312 -1.18,0.132 -1.18,-0.4Z" style="fill-rule:nonzero;"/><path id="shoulder4" d="M1156.78,345.059c-7.982,-4.418 -10.995,-5.611 -14.176,-5.611l-4.039,0l0,-16.633l-9.478,-5.019c-6.566,-3.477 -11.992,-7.301 -17.662,-12.448c-7.282,-6.611 -5.291,-14.389 -5.291,-17.616l0,-3.627l10.818,7.382l13.711,0.041l27.746,14.506l5.944,13.647l5.944,13.647l-0.761,8.396c-0.419,4.618 -1.18,8.519 -1.691,8.669c-0.511,0.15 -5.491,-2.252 -11.066,-5.338l0,0Z" style="fill-rule:nonzero;"/><path id="forearm3" d="M860.645,588.542c-3.468,-0.925 -6.558,-1.969 -6.867,-2.321c-0.309,-0.352 0.533,-3.814 1.872,-7.694c1.338,-3.88 6.467,-22.151 11.397,-40.601c6.181,-23.133 11.61,-38.679 17.984,-52.884c9.567,-21.32 16.329,-33.907 18.216,-33.907c0.599,0 1.9,1.988 2.891,4.419c1.387,3.401 2.746,4.293 5.899,3.875c3.275,-0.435 4.477,-1.925 5.992,-7.433l1.895,-6.889l0.162,7.32c0.159,7.183 0.263,7.32 5.557,7.32c5.238,0 5.396,0.195 5.396,6.675c0,10.488 -6.318,23.982 -28.291,60.426c-14.57,24.166 -21.234,39.759 -24.435,49.746c-4.907,15.309 -4.952,15.339 -17.667,11.949l0,0Z" style="fill-rule:nonzero;"/><path id="forearm4" d="M1232.938,571.928c-3.402,-8.261 -27.104,-29.771 -36.747,-45.874c-17.538,-29.287 -27.736,-51.817 -27.736,-61.276c0,-4.601 0.461,-5.03 5.396,-5.03c3.304,0 5.385,-0.835 5.368,-2.153c-0.035,-2.743 -4.251,-31.624 -5.531,-37.889c-0.581,-2.844 -0.321,-4.736 0.65,-4.736c2.175,0 2.806,3.013 4.963,23.723c1.527,14.662 2.4,18.13 5.092,20.236c4.509,3.528 4.95,3.345 8.826,-3.662l3.432,-6.204l6.08,10.683c8.216,14.436 37.999,57.979 47.587,92.789c4.32,15.682 7.854,28.942 7.854,29.465c0,1.611 -9.823,4.949 -14.563,4.949c-4.05,0 -5.083,-1.454 -10.671,-15.02Z" style="fill-rule:nonzero;"/><path id="neck" d="M368.123,338.802c-0.181,-18.428 -9.087,-24.158 -20.565,-31.719c-10.3,-6.785 -8.672,-8.95 2.859,-3.803l7.311,3.263l0.496,-3.768c0.273,-2.073 -4.512,-9.059 -10.023,-23.735c-5.511,-14.676 -9.798,-26.943 -9.528,-27.26c0.271,-0.317 6.392,1.221 13.603,3.417l13.111,3.993l11.421,-3.868c6.282,-2.127 11.757,-3.531 12.166,-3.121c1.555,1.56 -8.133,21.43 -13.403,31.964c-4.489,8.971 -7.318,20.872 -4.962,20.872c0.294,0 5.98,-1.838 12.636,-4.084c14.678,-4.954 18.36,-5.079 8.039,-0.272c-4.181,1.947 -11.404,6.961 -16.052,11.142c-8.283,7.451 -2.014,7.618 -2.144,17.751c-0.073,5.686 -1.19,13.122 -2.483,16.525c-2.309,6.079 -2.353,5.951 -2.483,-7.298l-0,0Z" style="fill-rule:nonzero;"/><path id="adductors1" d="M332.934,734.479c-2.967,-24.456 -15.795,-85.333 -26.025,-123.506c-7.569,-28.245 -4.39,-42.211 -1.923,-53.212c1.079,-4.81 1.379,-4.593 14.681,10.608c7.469,8.535 15.885,28.717 23.488,40.112l13.823,20.719l-6.775,48.396c-3.726,26.618 -8.614,54.611 -10.861,62.208l-1.274,14.049l-5.135,-19.374Z" style="fill-rule:nonzero;"/><path id="adductors2" d="M392.256,719.282c-2.34,-14.998 -5.86,-35.674 -7.822,-45.947c-2.096,-10.972 -3.567,-26.974 -3.567,-38.787l0,-20.109l20.237,-26.744c16.391,-21.661 34.412,-36.047 35.94,-34.22c0.164,0.197 -0.416,8.86 -1.289,19.252c-1.133,13.475 -3.554,28.605 -12.228,62.381c-6.69,26.049 -14.451,60.246 -17.246,75.993c-7.261,40.898 -8.782,41.785 -14.024,8.181Z" style="fill-rule:nonzero;"/></g><path id="human_body" d="M269.611,1139.267l-6.884,-0.229l-23.403,-9.678l-1.068,-9.115l-1.068,-9.115l12.623,-22.313l7.294,-21.826l7.294,-21.826l-0.02,-25.273l-6.53,-40.786l-6.53,-40.786l1.289,-7.868l1.289,-7.868l7.129,-48.653l5.03,-31.251l-7.457,-40.332l0,-20.738l7.347,-20.566l-4.121,-11.02l-4.346,-10.893l-3.375,-27.342l-3.375,-27.342c-0,0 -0.213,-25.216 2.116,-48.477c1.109,-11.076 6.581,-21.709 9.141,-28.966l12.075,-40.302l18.892,-31.672l9.102,-25.466c2.387,-13.601 1.016,-28.78 -1.903,-44.609l-10.186,-36.578l-5.812,-10.879l-1.411,-2.606l-0.25,11.518l-7.796,17.926l-7.796,17.926l-0.082,5.466l-0.082,5.466l-11.727,30.127l-23.728,24.53l-10.137,12.579l-10.137,12.579l-9.363,22.038l-9.364,22.038l-13.602,52.653l-4.182,4.049l-4.182,4.049l-2.907,-2.096l-2.907,-2.096l-3.86,5.426l-3.86,5.426l-11.991,0l-12.624,-13.72l10.994,-28.185l1.206,-2.733l1.206,-2.733l-16.139,0l0,-7.637l8.59,-8.769l8.59,-8.769l7.921,-3.928l7.921,-3.928l19.353,-38.023l23.246,-72.877l6.343,-14.575l8.637,-10.932l8.637,-10.932l4.103,-33.674l12.509,-28.271l2.647,-23.172l0.482,-5.773l3.606,-13.061l5.957,-12.446l11.523,-8.238l10.235,-5.185l10.235,-1.818l13.402,-5.232l5.414,-16.628l5.534,-6.262l12.133,-10.871l3.819,-39.857l-3.406,35.542l-18.081,21.448l-6.507,6.706c-8.491,-36.952 -1.433,-85.402 20.328,-144.723l4.35,-18.79l14.336,-3.871l14.336,-3.871l20.495,6.103l20.495,6.103l7.51,12.384c27.977,66.613 36.172,117.728 22.248,151.512l-18.944,-22.5l-7.248,-15.951l0,-30.221l0,30.221l4.539,9.989l4.539,9.989l6.029,7.241l11.085,11.231l16.257,3.479l9.388,3.402l10.058,8.3l7.139,8.3l18.739,8.224l6.239,12.186l3.104,12.111l0.012,23.155l11.496,27.316l2.081,16.12l2.081,16.12l10.105,14.058l10.105,14.058l26.787,86.895l15.372,34.445l8.131,4.112l8.131,4.112l8.501,8.859l8.501,8.859l0,7.716l-15.972,0l1.193,2.761l1.193,2.761l5.44,14.237l5.44,14.237l-12.493,13.86l-11.867,0l-7.392,-10.606l-8.454,3.863l-7.491,-17.796l-7.491,-17.796l-2.085,-13.664l-2.085,-13.664l-7.841,-21.308l-7.841,-21.308l-24.198,-27.821l-24.198,-27.821l-3.727,-16.354l-3.727,-16.354l-7.396,-18.459l-7.397,-18.459l0,-9.098l-6.065,0l-2.156,10.124l-2.156,10.124l-3.116,11.044c0,0 -11.77,44.597 -11.068,58.855c3.317,16.635 4.962,21.559 9.358,27.035l20.794,29.704c4.204,8.068 11.186,25.011 16.882,41.389c3.518,10.116 6.047,2.512 7.1,20.99c1.081,18.961 4.639,59.816 2.086,59.636l-4.065,26.419l-5.842,24.387l1.937,24.857l-0.297,46.803l-7.444,59.264l8.364,55.043l-2.09,32.206l-2.09,32.206l-9.367,45.36l8.277,28.942l8.277,28.942l6.671,11.817l6.671,11.817l-1.09,7.142l-1.09,7.142l-19.484,5.259l-12.112,0.487l-12.112,0.487l-7.25,-17.088l-8.868,-42.547l7.116,-53.466l-10.415,-41.127l-12.918,-45.24l-6.676,-90.48l-5.064,-24.512l-6.475,-28.957l0,-15.705l-7.88,-27.73l-12.591,-27.179l-6.868,-41.362l-6.587,-43.321l2.46,-10.043l2.46,-10.043l-14.478,0l-0.624,45.446l-11.749,74.825l-4.417,24.7l-10.45,25.912l-0.108,22.748l-5.905,15.709l-5.905,23.734l-1.646,38.831l-1.646,38.831l-10.649,36.176l-10.649,36.176l-1.667,19.062l-1.667,19.062l3.491,19.741l3.491,19.741l-13.254,52.135l-11.1,10.136l-6.884,-0.229Zm-16.914,-12.385l29.568,-1.577l2.867,-12.163l2.867,-12.163l3.263,-12.51l3.263,-12.51l-3.4,-21.742l-3.4,-21.742l-2.755,-2.237l-2.755,-2.237l-5.966,-28.381l-5.966,-28.381l-2.202,-44.599l-2.202,-44.599l-4.181,28.381l-4.181,28.381l13.57,88.734l0,26.338l-3.253,2.438l-3.252,2.438l-7.56,34.046l-6.341,10.799l-6.341,10.799l0,8.209l4.179,2.14l4.179,2.14Zm219.363,0.159l13.665,-0.063l4.334,-3.465l4.334,-3.465l-8.441,-20.12l-8.441,-20.12l-10.864,-32.902l0.869,-16.451l0.869,-16.451l9.094,-49.353l-0.338,-28.789l-0.338,-28.789l-4.472,-24.676l-1.873,37.015l-1.873,37.015l-5.836,34.958l-5.836,34.958l-4.401,6.575l-4.401,6.575l-0.809,44.428l3.183,16.768l3.183,16.768l2.364,4.824l2.364,4.824l13.665,-0.063Zm-184.051,-161.886l2.233,-38.517l5.856,-20.272l5.856,-20.272l6.597,-15.754l6.597,-15.754l-4.478,-3.442l-4.479,-3.442l-7.801,-0.124l-14.045,-19.451l-8.283,-11.37l-8.593,10.328l3.838,18.465l-0.013,77.034l3.062,28.564l3.062,28.564l4.18,11.98l4.18,11.98l2.23,-38.517Zm166.737,32.399l2.306,-1.797l8.719,-64.009l0.391,-91.633l-12.905,-18.027l-13.18,20.413l-13.042,3.195l0.64,6.012l0.64,6.012l20.386,69.917l1.87,35.858l1.87,35.858l2.306,-1.797Zm-156.448,-20.236l6.681,-18.245l8.911,-48.653l1.583,-19.185l1.583,-19.185l-2.709,2.031l-2.709,2.031l-6.77,21.943l-6.77,21.943l-6.953,67.244l0.472,8.322l6.681,-18.245Zm147.137,14.065l3.116,0l-2.025,-25.705l-2.025,-25.705l-6.327,-26.733l-6.327,-26.733l-4.532,-10.149l-4.532,-10.149l1.525,20.431l1.525,20.431l2.903,18.902l2.903,18.902l6.898,23.253l6.898,23.253Zm-126.83,-164.387l5.507,-10.417l2.58,-10.826l2.58,-10.826l-10.117,-4.61l-10.117,-4.61l-7.054,-10.766l-1.918,-10.743l-13.572,9.032l-8.436,9.055l-5.564,-7.609l-5.564,-7.609l-0.092,20.343l-5.46,33.333l6.942,-5.719l6.942,-5.719l0,-11.48l8.333,0l0.185,14.583l7.956,10.354l12.321,18.607l2.41,-2.923l-0.768,-11.337l-0.714,-25.117l7.776,0l0.167,17.708l1.884,25.845l3.79,-18.553Zm106.938,-4.235l6.803,-22.848l0.69,12.5l-4.273,16.517l2.758,5.488l2.758,5.488l6.974,-11.183l6.974,-11.183l10.392,-12.98l0.021,-8.813l10.699,12.5l-4.334,16.571l12.704,-14.488l-2.329,-10.417l-0.057,-18.635l-0.057,-18.635l-6.939,9.906l-6.939,9.906l-7.345,-9.07l-7.345,-9.07l-5.508,7.716l-5.508,7.716l-23.486,15.249l2.401,9.567l1.077,13.724l3.865,11.491l3.865,11.491l2.14,-18.507Zm-102.779,-37.432l7.816,0l0.24,-31.531l-5.219,-30.084l-2.521,-4.11l-2.521,-4.11l-2.718,15.524l-0.574,15.583l-0.225,14.124l-4.276,14.604l10,10Zm90,0l7.313,0l10.33,-12.447l-2.899,-27.066l-8.768,-26.466l-3.201,-1.994l-3.201,-1.994l-2.486,15.161l3.004,15.223l-0.092,39.583Zm-136.712,-16.667l6.984,0l8.108,-7.381l2.248,-7.201l-10.911,-24.294l-9.537,-24.052l-3.963,-29.199l-3.963,-29.199l4.733,-15.283l-7.055,0l-2.408,18.006l-2.408,18.006l0,33.44l11.719,33.191l6.453,33.966Zm182.284,0l6.669,-0l4.851,-32.123l12.021,-31.5l-1.638,-72.374l-8.443,-8.51l0,59.362l-12.257,36.877l-5.438,37.23l4.236,11.039Zm-150.241,-5.901l1.892,-1.923l3.255,-36.006l5.163,-35.598l-11.588,-51.206l-11.672,-41.146l-10.989,16.616l-10.989,16.616l-0.138,39.691l3.606,19.485l3.606,19.485l12.088,27.704l13.875,28.206l1.892,-1.923Zm127.073,1.735l5.625,0l10.527,-23.958l3.458,-23.305l4.987,-15.846l4.987,-15.847l0.995,-65.855l-19.663,-26.419l-5.553,0l-10.846,43.629l-10.846,43.629l5.059,41.726l11.269,42.247Zm-92.593,-22.471l1.708,-16.053l13.633,-97.335l-14.602,-21.727l-15.118,-34.401l-9.707,-6.979l-14.15,-15.855l-0.737,11.294l-0.737,11.294l2.973,16.197l-10.684,-17.714l11.292,41.902l7.766,29.107l14.857,69.858l2.94,23.286l5.743,23.637l4.822,-16.511Zm58.584,6.576l6.094,-7.022l-0.367,-28.411l4.943,-28.452l12.485,-48.774l12.485,-48.774l0.015,-16.788l1.626,-20.705l-20.115,18.823l-19.557,20.564l-19.701,33.024l0,32.871l3.658,14.318l3.675,19.507l4.823,29.844l9.937,29.976Zm173.434,-106.193l3.091,0l0,-3.681l-3.091,0l0,3.681Zm-410.802,-6.171l9.097,-8.807l3.115,2.246l3.115,2.246l3.296,-15.596l3.296,-15.596l2.987,-12.535l2.987,-12.535l-6.792,-9.547l-7.603,0l-3.506,8.976l-3.506,8.976l-12.351,9.095l-12.351,9.095l-3.657,6.903l13.416,-4.093l-1.572,9.594l-1.572,9.594l5.801,2.148l5.801,2.148l0,7.689Zm412.765,-6.686l4.661,-5.55l5.741,0l0,-19.194l4.798,2.192l4.798,2.192l-1.966,-3.788l-1.966,-3.788l-12.224,-9.189l-12.224,-9.189l-3.47,-9.069l-3.47,-9.068l-3.645,0.234l-5.282,4.779l-5.282,4.779l2.937,12.59l2.937,12.59l3.202,15.491l3.202,15.491l4.24,-1.938l4.24,-1.938l2.055,3.961l2.055,3.96l4.661,-5.55Zm-309.686,-7.569l4.264,-1.695l9.252,-13.885l9.252,-13.885l6.242,-25.774l1.552,-21.756l3.631,-2.364l-3.437,-2.273l-15.439,23.415l-5.127,27.538l-11.014,16.188l-3.44,16.188l4.264,-1.695Zm205.76,-8.396l3.838,0l-2.659,-13.21l-6.692,-13.21l-8.097,-21.297l-15.922,-25.095l-2.744,1.815l4.779,1.881l0,22.235l2.467,18.146l12.515,14.367l12.515,14.367Zm-119.147,-4.821l5.529,0l5.768,-36.6l2.607,-31.947l-2.127,-14.236l-2.127,-14.236l-18.675,0l-11.64,-4.781l2.264,20.615l-1.203,20.874l7.693,23.197l4.097,27.411l7.813,9.702Zm18.981,0l6.87,0l7.757,-25.612l9.467,-12.68l2.462,-30.593l5.186,-29.263l-2.396,-2.565l-13.054,2.899l-13.054,2.899l-1.939,15.392l-1.627,15.47l-2.534,33.911l2.861,30.142Zm52.114,-54.501l10.548,-17.471l-4.503,-31.326c-0.896,-4.984 2.121,-24.324 2.961,-24.324l2.384,-18.968l10.331,-35.729l5.862,-12.948l5.862,-12.948l-2.127,-10.093l-2.127,-10.093l-10.561,5.439l-11.681,-2.28l-11.75,4.029l-1.737,56.59l-6.412,58.651l-5.064,26.862l-1.499,27.547l-2.856,11.193l0.85,2.125l21.519,-16.256Zm-91.371,15.596l1.326,0.519l-4.097,-10.824l-3.365,-44.066l-7.172,-43.267l-4.124,-44.658l1.255,-41.036l-12.675,4.738l-10.933,-4.179l-4.269,-2.031l-4.269,-2.031l1.568,14.11l-1.835,5.716l6.67,17.249l2.957,9.72l12.871,72.866l-4.551,27.961l7.307,17.146l22.013,21.547l1.326,0.519Zm-134.732,-2.162l2.798,-2.017l0,-11.122l24.462,-27.93l24.462,-27.93l3.994,-8.707l3.994,-8.707l2.563,-10.424l2.563,-10.424l-2.888,0l-11.214,5.466l-11.214,5.466l-4.703,0l-3.936,-22.959l-6.521,6.884l-6.521,6.884l-3.376,7.329l-3.376,7.329l-13.22,40.082l-13.22,40.082l12.555,12.714l2.798,-2.017Zm351.768,-3.737l5.8,-4.313l0,-5.627l-25.413,-82.794l-15.089,-23.928l-5.868,0l0,17.972l-5.911,4.35l-22.861,-11.375l-2.124,2.529l4.892,17.099l4.893,17.099l36.464,37.617l9.709,17.842l9.709,17.842l5.8,-4.313Zm-190.794,-56.165l3.825,0.37l2.031,-5.665l2.031,-5.665l0,-19.562l-40.118,0.448l0.054,7.163l1.951,7.785l1.951,7.785l12.226,3.485l12.226,3.485l3.824,0.37Zm25.861,-1.655l10.47,-2.404l5.856,-3.284l5.856,-3.284l0,-9.907l1.712,-4.774l1.712,-4.774l-18.691,0.568l-18.691,0.567l-3.283,3.514l2.295,13.091l2.295,13.091l10.47,-2.404Zm-53.669,-33.791l25.108,0l10.586,-4.348l-0.18,-20.276l0,-16.438l-44.543,1.681l-0.007,15.372l4.574,19.232l2.231,2.388l2.231,2.388Zm43.5,0l25.111,0l10.586,-4.348l4.577,-19.435l-0.011,-15.597l-22.269,-0.655l-22.269,-0.655l0,16.027l-0.187,19.887l4.462,4.775Zm-139.508,-8.267l2.606,0l14.472,-7.236l14.472,-7.236l5.752,-15.538l5.752,-15.538l2.099,-20.7l2.099,-20.701l-6.478,-4.044l-6.478,-4.044l-27.381,21.976l-3.457,11.568l-3.457,11.568l0,49.927Zm269.009,-4.91l2.698,-1.824l-2.832,-52.385l-4.374,-9.867l-4.374,-9.867l-12.242,-9.874l-12.242,-9.874l-4.761,3.548l-4.761,3.548l-0.942,13.091l-0.942,13.091l4.915,20.134l4.915,20.135l5.301,5.638l5.301,5.638l10.82,5.346l10.82,5.346l2.698,-1.824Zm-157.908,-34.374l14.853,-2.1l2.931,-2.739l1.847,-19.485l1.847,-19.485l-14.452,2.42l-14.452,2.42l-16.709,0.083l0,37.019l4.641,1.984l4.641,1.984l14.853,-2.1Zm44.558,1.499l14.853,0.91l5.125,-3.291l5.125,-3.291l-2.461,-16.639l-2.461,-16.639l-18.603,-3.864l-18.603,-3.864l-2.023,3.319l-2.023,3.319l5,36.86l8.036,1.589l8.036,1.589Zm-61.951,-48.062l19.738,0.147l7.182,-3.897l7.182,-3.897l-0.082,-20.441l-2.335,-14.327l-7.962,-14.311l-11.809,-8.938l-11.809,-8.938l-17.839,0l-10.084,18.584l-7.705,8.444l-5.557,17.676l-9.723,17.676l5.879,5.497l5.879,5.497l9.371,5.134l9.934,-4.054l19.738,0.147Zm81.593,0.034l19.642,0.114l14.451,-1.196l12.393,-7.529l3.484,-10.813l-20.195,-33.01l-14.62,-14.967l-5.993,-3.183l-5.993,-3.183l-17.746,0l-12.392,10.798l-5.67,11.158l0,44.022l12.996,7.674l19.642,0.114Zm-158.511,-5.13l3.514,-2.537l9.603,-4.83l9.602,-4.83l12.031,-21.675l5.793,-21.362l5.38,-3.837l10.124,-14.716l0,-5.284l-15.651,14.417l-14.84,3.367l-11.31,4.653l-6.408,5.207c-3.706,6.77 -6.729,14.619 -9.011,21.891l0,14.085l-3.124,10.441l4.295,5.01Zm236.052,-3.358l1.988,0.211l1.876,-5.823l1.876,-5.823l0,-9.02l-4.451,-10.662l-4.451,-9.004l-22.362,-14.273l-12.58,-10.268l-14.593,-3.292l-20.382,-7.509l9.144,7.703c13.628,11.884 23.269,23.206 30.234,34.152l10.896,19.559l10.409,6.919l10.409,6.919l1.988,0.211Zm-117.605,-21.514l2.973,-9.412l0.37,-9.696l-6.145,-9.526l7.913,-7.377l7.913,-7.377l12.245,-5.27l12.245,-5.27l-3.941,-0.136l-3.941,-0.136l-14.464,5.064l-14.464,5.064l0,-10.474l4.872,-9.395l7.132,-5.9l3.91,-14.283l3.91,-14.283l-13.311,4.097l-13.311,4.097l-27.537,-8.475l0,3.026l9.835,26.2l10.477,19.568l0,6.874l-6.135,-2.506l-6.135,-2.506l-7.011,-1.728l-7.011,-1.728l12.705,8.909l12.705,8.909l2.195,5.676l8.295,6.023l0.74,31.384l2.973,-9.412Zm-49.544,-50.721l9.349,0l-2.337,-2.319l-2.337,-2.319l-2.337,2.319l-2.337,2.319Zm23.956,-4.315l5.145,0.836l-5.974,-13.046l-8.946,-10.484l-1.242,-2.326l-11.569,11.601l-5.944,6.574l28.53,6.846Zm38.314,-0.328l5.01,-1.908l11.934,-2.222l11.934,-2.222l-6.063,-7.455l-12.129,-12.505l-9.56,11.329l-6.135,13.426l0,3.464l5.01,-1.908Zm-18.818,-44.308l13.769,-0.004l6.17,-4.805l6.17,-4.805l9.402,-18.983l9.402,-18.983l-4.392,-2.722l-4.392,-2.722l-2.672,-15.77l-2.672,-15.77l-1.914,-6.983l-1.914,-6.983l-26.263,2.511l-32.935,26.662l-10.66,11.112l7.667,-23.071l2.385,9.528l2.385,9.528l-4.814,9.021l-4.814,9.021l12.558,24.351l0,11.834l13.769,8.042l13.769,-0.007Zm38.028,-87.853l2.623,-2.63l-2.623,-2.63l-2.623,-2.63l0,10.519l2.623,-2.63Zm-70.879,-8.571l6.487,-6.505l13.94,3.655l37.209,-6.971l6.294,4.428l6.294,4.428l-11.038,-10.354l-19.669,-10.791l19.669,10.791l-38.759,8.468l-26.914,1.342l8.851,-9.866l-8.851,9.866l0,8.013l6.487,-6.505Zm603.605,999.824l-18.663,0l-4.614,-6.815l-4.614,-6.815l1.609,-94.944l7.337,-127.029l8.427,-28.637l8.427,-28.637l1.971,-20.542l1.971,-20.542l-2.682,-4.241l2.523,-4.236l-9.557,-92.033l0.22,-85.843l7.527,-37.711l22.737,-50.981l22.247,-35.828l-2.28,-31.173l-5.218,-21.858l-5.218,-21.858l-0.306,-25.964l-16.867,36.674l-8.526,11.002l-13.966,46.51l-16.448,28.727l-18.65,30.283l-7.193,19.694l-7.193,19.694l11.08,50.19l0,8.099l-13.1,0l-4.07,-14.033l-4.07,-14.033l-3.039,5.31l-3.039,5.31l-10.644,40.707l-13.145,0l0,-13.112l-4.594,7.148l-4.594,7.148l-3.924,-2.759l-3.924,-2.759l0,-11.173l-10.222,0l0,-10.148l5.002,-7.525l5.002,-7.525l0.217,-7.366l-8.177,9.304l-8.859,0l0,-9.957l38.02,-42.38l6.26,-13.749l6.26,-13.749l2.449,-15.327l2.449,-15.327l10.049,-27.692l9.682,-27.505l11.212,-20.65l11.212,-20.65l0.139,-13.71l8.396,-25.672l8.396,-25.672l1.306,-23.976l1.286,-22.101l9.186,-17.985l6.147,-5.632l6.147,-5.632l27.962,-9.989l21.791,0l14.287,-21.465c3.083,-5.785 -0.064,-14.914 7.107,-18.147l0,-14.448l3.324,32.248l-8.743,11.414l-26.87,10.397c-4.38,-28.735 3.501,-77.954 23.103,-146.751l14.617,-13.62l14.617,-13.62l27.973,0l10.217,4.733l10.217,4.733l6.623,10.277l6.623,10.277c19.093,76.27 23.066,123.332 8.026,133.661l-10.773,-8.898l-6.918,-30.502l2.16,8.752l-6.016,12.853l10.773,8.898l14.484,19.769l11.934,-0.233l18.503,2.209l12.207,6.413l12.207,6.413l5.944,10.3l5.944,10.3l1.06,23.739l5.11,25.614l8.447,20.17l8.447,20.17l0.066,23.024l13.232,25.161l13.232,25.161l26.948,46.087l13.533,48.624l22.37,27.888l22.37,27.888l-2.136,3.933l-2.136,3.932l-10.059,0l3.674,7.811l3.674,7.811l-5.258,2.296l-5.259,2.296l0,10.343l-3.959,2.784l-3.959,2.784l-6.263,-8.8l-6.263,-8.8l0,20.243l-10.031,0l-10.515,-40.707l-2.866,-5.142l-2.866,-5.142l-7.485,14.435l-7.485,14.435l-6.426,-7.311l5.648,-29.616l5.649,-29.616l-19.349,-36.893l-31.26,-36.366l-3.274,-2.26l-3.274,-2.26l-6.075,-13.504l-6.075,-13.504l-2.172,-13.381l-2.172,-13.381l-6.537,-9.284l-6.537,-9.284l-6.321,-15.771l-6.321,-15.771l-1.413,5.429l-1.413,5.429l-4.519,23.838l-4.519,23.838l-3.655,33.44l4.412,25.238l34.364,52.16l17.315,73.213l-1.127,70.076l-5.088,74.474l-4.87,32.706l3.044,28.342l8.737,22.269l8.737,22.269l3.371,30.367l3.371,30.367l2.332,83.546l2.332,83.546l-15.913,9.572l-10.929,-2.698l-10.929,-2.698l-4.659,-12.755l-4.659,-12.755l-5.125,-26.98l7.925,-9.482l7.925,-9.482l-4.473,-15.492l-4.473,-15.492l-16.079,-36.176l-16.079,-36.176l-1.164,-37.521l-1.164,-37.521l-10.633,-25.5l-10.633,-25.5l-7.012,-34.705l-3.996,-30.758l-14.397,-30l-12.387,-29.782l-2.316,-27.154l-2.316,-27.154l-6.05,0l-1.948,25.513l-1.948,25.513l-14.893,40.182l-13.653,43.387l-4.88,22.556l-4.524,23.178l-17.275,42.578l-6.084,89.415l-19.172,45.878l-19.172,45.878l0,14.927l6.947,7.291l6.947,7.291l0,16.044l-5.302,18.631l-5.302,18.631l-11.565,10.645Zm-15.189,-8.516l15.128,-0l8.336,-10.219l0,-19.083l3.474,-2.632l3.474,-2.631l0,-20.284l-3.862,-2.926l-3.862,-2.926l-3.355,5.868l-3.356,5.868l4.442,-46.836l12.329,-29.817l12.329,-29.817l-23.35,-31.228l-11.893,13.035l-11.893,13.035l-3.164,74.102l-3.164,74.102l4.194,6.194l4.194,6.194Zm257.915,-12.001l5.863,0.123l3.575,-5.061l3.575,-5.061l-1.073,-52.261l-1.073,-52.261l-2.479,-20.618l-2.479,-20.618l-11.289,-10.747l-11.289,-10.747l-12.017,14.673l-12.017,14.673l11.6,22.073l8.918,26.632l8.918,26.632l0,25.1l-9.668,-9.019l-4.74,5.328l0,18.417l3.602,2.502l3.602,2.502l0,19.364l12.608,8.254l5.863,0.123Zm-205.67,-160.625l3.81,-8.332l5.316,-96.942l-5.468,-12.961l-5.468,-12.961l-4.868,16.725l-4.868,16.725l-6.88,35.292l-6.88,35.292l0,7.285l21.497,28.209l3.81,-8.332Zm164.64,-1.995l5.586,-1.236l14.196,-21.393l-7.418,-35.866l-7.418,-35.866l-10.465,-32.391l-5.268,14.171l-5.268,14.171l2.504,44.858l2.504,44.858l2.73,4.965l2.73,4.965l5.586,-1.236Zm-211.175,-3.955l7.175,-4.707l4.154,-9.483l4.154,-9.483l17.068,-80.899l0.495,-31.923l-3.87,-4.744l-3.87,-4.744l-3.776,2.861l-3.776,2.861l0,25.755l-9.944,30.514l-9.944,30.514l-2.521,29.092l-2.521,29.092l7.175,-4.707Zm248.037,-3.355l10.229,0l-1.989,-25.305l-1.989,-25.305l-10.277,-29.017l-10.277,-29.017l0,-23.977l-4.942,-4.61l1.532,-8.741l-11.026,16.482l-4.551,12.351l14.926,58.431l2.246,16.535l2.246,16.535l6.936,12.82l6.936,12.82Zm-179.468,-119.013l7.42,-20.755l3.966,-24.051l4.881,-23.908l-5.76,-22.51l-4.385,-21.524l-2.658,-20.828l-2.658,-20.828l-28.312,-7.151l-7.479,17.849l-3.003,22.25l-8.03,22.468l1.936,13.829l-5.605,13.829l24.066,38.743l2.591,13.965l15.607,39.377l7.42,-20.755Zm119.671,17.791l4.069,-0.209l6.304,-15.393l6.304,-15.393l4.208,-18.985l18.42,-31.759l-6.727,-16.028l1.747,-15.484l-4.628,-18.311l-3.145,-18.16l-5.376,-18.695l-13.709,-14.528l-8.609,5.814l-6.74,13.407l-7.363,39.911l-8.657,41.508l6.424,25.207l5.632,29.174l5.924,13.963l5.924,13.963Zm-152.375,-36.186l2.73,0l-3.122,-8.674l0,-8.444l-3.576,2.424l-3.576,2.424l5.586,6.02l1.957,6.25Zm176.256,-0.254l3.177,0l7.771,-7.895l2.321,-3.818l-4.099,-2.576l-4.099,-2.576l0,6.394l-5.07,10.471Zm-206.351,-51.948l13.103,-15.391l-4.249,-14.485l9.662,-12.749l0.05,-22.15l8.284,-22.211l9.257,-12.888l19.915,11.345l0.054,-4.333l-27.782,-9.756l-18.075,-19.313l-0.529,-18.326l-4.067,8.557l-4.067,8.557l1.204,78.47l10.121,85.064l-12.881,-40.391Zm228.272,39.669l7.15,0l-4.13,-11.045l-4.13,-11.045l6.479,-66.826l2.883,-63.554l-6.515,-27.457l-3.931,12.263l-3.931,12.263l-17.043,15.404l-11.983,2.212l-11.983,2.212l4.849,-12.13l0,4.703l19.403,10.384l8.331,18.565l5.782,24.203l7.913,28.586l-5.646,8.928l3.8,8.993l1.918,17.894l0.785,25.447Zm-136.102,-76.565l10.505,-22.775l2.194,-17.576l2.194,-17.576l-19.225,1.285l-19.225,1.285l4.91,29.079l3.749,21.023l3.749,21.023l0.644,7.008l10.505,-22.775Zm62.927,19.55l1.505,-1.265l5.939,-32.793l5.939,-32.793l0.149,-8.054l-37.52,-2.508l-0.071,10.537l-0.072,10.537l22.624,57.604l1.506,-1.265Zm-241.602,-85.78l3.407,0l0,-3.877l-3.407,0l0,3.877Zm-6.814,-3.877l3.407,0l0,-3.877l-3.407,0l0,3.877Zm-6.814,-3.877l3.407,0l0,-3.877l-3.407,0l0,3.877Zm431.37,-1.05l2.059,-2.342l-3.579,-10.177l-0.269,7.431l-0.269,7.431l2.059,-2.342Zm-412.062,-4.119l2.271,-2.585l-2.271,-2.585l-2.271,-2.585l0,10.338l2.271,-2.585Zm159.471,15.21l24.658,-0.876l5.249,-12.263l5.249,-12.263l0.317,-29.242l0.83,-55.813l-6.927,-15.44l-6.597,-11.355l-22.335,-13.415l-11.235,0l-14.3,15.379l-14.3,15.379l-11.707,52.82l-8.995,21.382l0,18.222l4.723,8.712l4.723,8.712l25.989,10.935l24.658,-0.876Zm56.373,0.876l46.944,-0l27.589,-11.003l5.021,-10.187l5.02,-10.187l-4.07,-22.932l-16.718,-43.965l-3.384,-26.128l-14.875,-15.488l-24.347,-6.35l-6.366,-0.087l-15.838,9.051l-5.655,11.118l-5.816,15.196l0.25,54.563l0,28.039l3.83,8.048l3.83,8.048l4.586,12.263Zm-225.754,-27.393l5.809,-10.661l5.236,0l0.027,13.569l7.198,-13.435l7.198,-13.435l6.946,9.558l6.946,9.558l-4.369,-19.384l-0.093,-13.015l-10.708,-12.184l-22.082,0l-14.737,22.68l7.618,2.889l-4.084,9.507l-4.084,9.507l5.264,-7.471l5.264,-7.471l2.292,2.608l2.292,2.608l-7.921,19.782l0.181,5.45l5.808,-10.661Zm433.542,8.723l3.407,0l0,-3.877l-3.407,0l0,3.877Zm16.462,-3.888l1.13,0.012l-7.092,-13.057l-7.092,-13.057l0,-9.234l3.407,2.396l3.407,2.396l0,-4.065l-10.373,-13.442l-10.373,-13.442l-10.922,4.144l-10.922,4.144l-4.24,4.757l-2.133,17.446l-2.133,17.446l3.571,-6.784l3.571,-6.784l8.647,0l11.022,25.199l0.218,-6.784l0.218,-6.784l4.36,0l4.687,6.784l4.687,6.784l-1.921,-11.63l-1.921,-11.63l9.535,12.588l9.535,12.588l1.13,0.012Zm-60.756,-7.742l3.407,0l0,-3.877l-3.407,0l0,3.877Zm-366.277,-51.298l10.556,0.899l8.97,-28.226l19.722,-35.317l20.221,-33.409l8.043,-20.516l0,-14.324l-9.848,0l-0.592,-23.838l-6.161,23.838l-6.052,0l-2.9,-5.789l-2.9,-5.789l-5.003,8.539l-5.004,8.539l-17.793,39.245l-9.308,34.128l-9.513,35.471l-2.432,6.445l-2.432,6.445l6.213,1.828l6.213,1.828Zm85.446,17.231l0.096,-9.009l16.735,-26.016l-3.47,-24.687l14.023,-15.781l24.386,-6.616l-12.254,0.112l-9.242,2.063l-12.21,7.114l-7.468,12.303l-1.415,28.384l-11.64,29.628l-2.257,4.954l4.716,-2.449Zm203.103,0.68l1.894,-1.591l-7.217,-30.876l-15.984,-48.653l-12.8,-5.337l-8.015,3.78l-12.002,-0.112l26.296,7.977l14.431,17.142l-1.294,9.247l4.033,13.244l3.893,19.065l4.871,17.705l1.893,-1.592Zm85.805,-20.888l11.809,0l4.703,-2.053l4.703,-2.053l-8.209,-29.93l-21.838,-29.698l-19.425,-52.075l-6.519,-11.976l-6.519,-11.976l-4.244,6.484l-4.244,6.484l-6.794,-4.691l-4.51,-40.322l-3.57,-2.465l-3.57,-2.465l4.736,17.65l1.859,15.586l1.859,15.586l-10.702,0l0,11.238l9.652,25.805l17.859,30.071l30.872,31.724l12.095,29.076Zm-174.931,-57.072l9.085,-4.643l8.29,-2.324l8.29,-2.324l0,-5.701l-9.808,-21.009l-0.039,-22.743l-3.551,-11.379l-3.551,-11.379l-10.21,-7.221l-10.21,-7.221l-11.855,6.757l-11.855,6.757l-3.93,9.635l-3.931,9.635l0,29.358l-5.166,11.161l-5.166,11.161l1.063,0.685l1.063,0.685l12.009,6.089l9.59,-2.261l14.859,20.072l15.024,-13.787Zm-74.193,-9.938l5.193,-2.226l4.561,0l-1.185,-13.887l-1.185,-13.887l-6.215,-9.034l-6.215,-9.034l7.994,29.248l-8.14,21.046l5.193,-2.226Zm125.204,1.016l4.008,0.425l-4.758,-17.433l3.309,-33.838l-1.194,-0.073l-6.507,10.209l-6.507,10.209l-2.232,13.293l-2.232,13.293l6.054,1.744l6.054,1.744l4.008,0.427Zm-109.841,-10.577l2.759,0l4.757,-12.718l4.757,-12.718l0,-30.701l12.924,-13.329l12.924,-13.329l-30.124,-62.066l-1.095,-1.723l-12.907,7.463l-12.907,7.463l-16.872,-3.586l3.892,36.205l3.892,36.205l12.116,18.439l12.116,18.439l1.885,12.979l1.885,12.979Zm91.731,-12.177l2.464,-13.246l12.129,-18.861l12.129,-18.861l4.244,-33.523l4.244,-33.523l0.231,-5.995l-6.477,2.296l-6.477,2.296l-15.369,-7.595l-15.369,-7.595l-1.494,1.923l-15.31,31.783l-15.31,31.783l9.859,6.506l9.859,6.506l6.311,18.773l1.93,15.467l1.93,15.467l8.012,19.644l2.464,-13.246Zm-172.08,-46.501l13.557,0l8.677,-16.54l8.677,-16.54l4.804,-17.383l4.804,-17.383l-4.018,-19.254l-4.586,-18.56l-5.752,0l-9.152,4.869l-9.63,5.563l-10.681,23.074l-6.205,20.147l-6.205,20.147l0,28.624l3.283,-2.267l3.283,-2.267l0.09,-23.405l1.979,-8.252l1.979,-8.252l13.201,0l-3.323,34.84l-2.39,6.418l-2.39,6.418Zm240.683,0l10.217,0l-2.226,-6.418l-2.226,-6.418l-3.731,-34.84l13.28,0l1.979,8.252l1.979,8.252l0.045,11.702l0.045,11.703l2.907,2.007l2.907,2.007l1.476,-8.623l1.476,-8.623l-4.304,-18.786l-4.304,-18.786l-8.304,-18.306l-8.304,-18.306l-13.372,-5.493l-9.518,-4.984l-5.928,0l0.066,18.48l-3.394,19.174l5.928,21.28l5.928,21.279l17.374,25.447Zm-239.673,-25.376l3.175,-8.873l-3.383,-3.779l-3.383,-3.779l0.416,25.305l3.175,-8.873Zm124.417,-0.366l1.664,-0.071l14.058,-29.495l14.058,-29.495l3.177,-27.989l3.177,-27.989l6.718,-14.399l6.718,-14.399l-0.974,-0.739l-0.974,-0.739l-47.601,-15.134l-47.601,15.134l-0.954,0.717l-0.954,0.717l13.57,25.693l3.622,50.412l30.632,67.846l1.664,-0.071Zm-74.465,-54.939l8.114,0l14.13,-7.067l14.13,-7.067l-1.851,-38.969l-9.501,-25.401l-9.319,15.203l-8.073,8.816l-19.184,10.044l-0.975,11.285l0.772,9.817l1.468,10.506l10.288,12.836Zm144.013,-0.309l5.51,0.309l9.408,-10.51l-1.09,-15.066l2.239,-14.126l-18.125,-14.494l-10.31,-8.447l-7.522,-14.71l-3.164,6.605l-3.164,6.605l-7.196,43.486l0,5.71l27.904,14.329l5.51,0.309Zm-192.318,-18.712l2.969,-1.673l13.252,-5.699l13.403,-5.857l1.945,-8.634l1.945,-8.634l15.334,-9.817l15.334,-9.817l1.15,-6.174l1.15,-6.174l-31.346,3.065l-24.523,11.801l-9.519,18.638l-2.061,15.222l-2.003,15.425l2.969,-1.673Zm241.968,-0.209l2.01,-18.626l-6.267,-14.345l-6.267,-14.345l-14.341,-7.029l-14.341,-7.029l-13.522,0l-10.639,-7.412l0,7.668l4.591,13.799l7.475,7.214l10.3,5.574l10.3,5.574l0,16.665l8.18,0l22.521,12.291Zm-154.653,-80.682l5.521,-2.367l13.337,-4.012l13.337,-4.012l-0.029,-15.661l0,-12.145l-14.117,0.269l-10.457,23.175l-13.113,17.119l5.521,-2.367Zm69.947,0.131l1.69,0.764l-4.149,-21.966l-13.138,-19.785l-14.117,3.617l0,11.586l-1.472,15.119l31.187,10.665Zm-10.023,-42.428l8.543,0l0,-8.202l-3.557,0l-4.986,8.202Zm-37.842,-4.362l25.558,0.261l6.552,-2.556l6.552,-2.556l7.895,-15.735l4.532,-12.939l3.363,-21.221l-80.67,-18.425l31.867,-33.194l39.165,11.688l-22.23,-11.688l22.23,11.688l-71.032,64.407l31.867,-76.095l-15.47,36.94l-16.398,-3.745l80.67,18.425l-8.067,50.907c-29.119,17.475 -54.156,13.136 -72.603,-26.431l71.032,-64.407l-57.285,84.687l12.471,9.992Z" style="fill-rule:nonzero;"/></svg>